<svg xmlns="http://www.w3.org/2000/svg" viewBox="0 0 300 300"><defs><style>.a{fill:#009cff;}</style></defs><title>DTALE_Website_Logos</title><polygon class="a" points="228.13 280 252.29 234.14 245.97 213.56 210.98 280 228.13 280"/><polygon class="a" points="257.84 225.4 149.8 20 149.8 20.01 149.79 20 13.29 279.52 30.44 279.52 149.8 52.59 248.79 240.79 257.84 225.4"/><polygon class="a" points="219.31 264.77 28.65 264.45 13.29 279.54 227.2 280 219.31 264.77"/><polygon class="a" points="278.93 264.77 247.87 264.45 232.2 279.97 286.81 280 278.93 264.77"/><polygon class="a" points="249.34 279.97 265.83 248.03 259.51 228.13 232.2 279.97 249.34 279.97"/><polygon class="a" points="269.67 279.97 253.18 248.03 259.5 228.13 286.81 279.97 269.67 279.97"/></svg>