<svg xmlns="http://www.w3.org/2000/svg" viewBox="0 0 300 300"><defs><style>.a{fill:#0f9688;}</style></defs><title>DTALE_Website_Logos</title><circle class="a" cx="149.9" cy="139.87" r="16.15"/><path class="a" d="M149.9,36.36A103.17,103.17,0,0,0,85.1,59.13V20.67l-.75.37q-2.3,1.17-4.56,2.41l-.19.1-1,.58A103.2,103.2,0,0,0,46.26,53.56v86.3h0c0,.06,0,.12,0,.18a103.71,103.71,0,0,0,83.67,101.76L94.57,173.19l-.58-1a64.25,64.25,0,0,1-8.67-32.31,65.39,65.39,0,0,1,.34-6.68,64.65,64.65,0,1,1,120.28,38.9L170,241.78A103.7,103.7,0,0,0,149.9,36.36Z"/><path class="a" d="M170,241.8a104.91,104.91,0,0,1-40,0l20,38.83Z"/></svg>