<svg xmlns="http://www.w3.org/2000/svg" xmlns:xlink="http://www.w3.org/1999/xlink" viewBox="0 0 300 300"><defs><style>.a,.n{fill:none;}.b,.g,.h,.i{stroke:#fcd109;}.b,.c,.d,.e,.f,.g,.h,.i,.j,.k,.l{stroke-width:0.09px;}.b{fill:url(#a);}.c{fill:#f8f3b5;stroke:#f8f3b5;}.d{fill:#f7b402;stroke:#f7b402;}.e{fill:#bda727;stroke:#bda727;}.f{fill:#f7e62d;stroke:#f7e62d;}.g{fill:url(#b);}.h{fill:url(#c);}.i{fill:url(#d);}.j{fill:#0d69b3;stroke:#0d69b3;}.k{fill:#107bd4;stroke:#107bd4;}.l{fill:#fff;stroke:#fff;}.m{clip-path:url(#e);}.n{stroke:#d1d1d1;stroke-width:2px;}</style><linearGradient id="a" x1="150.42" y1="-342.09" x2="150.42" y2="-127.85" gradientTransform="translate(0.14 406.45)" gradientUnits="userSpaceOnUse"><stop offset="0" stop-color="#f7e830"/><stop offset="1" stop-color="#fdcb06"/></linearGradient><radialGradient id="b" cx="149.31" cy="-244.37" r="174.26" gradientTransform="translate(0.14 406.45)" gradientUnits="userSpaceOnUse"><stop offset="0.6" stop-color="#f29405"/><stop offset="0.74" stop-color="#f7d01e"/><stop offset="1" stop-color="#fdcb06"/></radialGradient><linearGradient id="c" x1="210.04" y1="-334.36" x2="210.1" y2="-324.21" gradientTransform="translate(0.14 406.45)" gradientUnits="userSpaceOnUse"><stop offset="0" stop-color="#fada1c"/><stop offset="1" stop-color="#fdcb06"/></linearGradient><linearGradient id="d" x1="3268.6" y1="-334.84" x2="3268.66" y2="-324.7" gradientTransform="matrix(-1, 0, 0, 1, 3359.45, 406.45)" xlink:href="#c"/><clipPath id="e"><path class="a" d="M210.19,77.1a3.87,3.87,0,0,1-.33-1.82l-.29,0A4.15,4.15,0,0,0,206,72.11c-1.31-.11-3-.07-3.72,1.17-1.46,2-.77,4.48-.84,6.71,0,.15,0,.4,0,.55a25.48,25.48,0,0,1-.44,4.41,3.13,3.13,0,0,0-.33,1.42,33.61,33.61,0,0,1-3.54,9.91,3.68,3.68,0,0,0-.69,1.42,49.25,49.25,0,0,1-3.75,5.39,4.67,4.67,0,0,0-.58.62,35.6,35.6,0,0,1-3,3.17c-.25.15-.44.33-.66.47a23.74,23.74,0,0,1-4.12,3.24c-.18.11-.36.26-.58.4-9.33,6.16-20.67,8.71-31.71,8.82a59.23,59.23,0,0,1-27.27-5.76l-.66-.29A36.48,36.48,0,0,1,120,111.4c-.29-.15-.58-.33-.91-.47a27.86,27.86,0,0,1-3.83-2.7c-.4-.36-.84-.66-1.28-1a30.89,30.89,0,0,1-3.79-3.46c-.29-.33-.58-.62-.87-.91a36.33,36.33,0,0,1-8.71-14.62c-1.57-4.34-1.35-9.08-1.53-13.63-1.31-2-4.08-3.13-6.27-1.9-.91.66-1,1.86-1.71,2.7-1.13,12,4,24,12.21,32.7a.59.59,0,0,0,.4.58c1.46,1.35,2.88,2.73,4.34,4a5.8,5.8,0,0,0,.87.73c1.46,1.2,3,2.3,4.56,3.43a7.76,7.76,0,0,0,.91.58,41,41,0,0,0,6.05,3.35,4.75,4.75,0,0,0,.55.36A65.73,65.73,0,0,0,143,127.51a11.78,11.78,0,0,1,2.52.26c3.65.22,7.29.11,10.94,0,11.26-1,22.89-3.72,32.3-10.35l.11.15c.29-.26.55-.47.84-.69,1.5-1.09,3-2.26,4.41-3.46a11.07,11.07,0,0,0,1-.87,48.08,48.08,0,0,0,4.81-5.36l.22.11c.11-.18.29-.55.4-.73,1.24-1.68,2.37-3.43,3.46-5.18.07-.11.25-.29.33-.4l-.15-.15c.11-.15.36-.44.47-.58a42.76,42.76,0,0,0,4.41-12.87.63.63,0,0,0,.4-.58c0-1.46.55-2.84.4-4.3a24.83,24.83,0,0,0,.29-5.43Z"/></clipPath></defs><title>DTALE_Website_Logos</title><path class="b" d="M280.42,65.46c-.11-.36-.22-.73-.36-1.09q-129.53.05-259,0a1.51,1.51,0,0,0-.4.84q0,100.44,0,200.84a16.25,16.25,0,0,0,5.14,9.26c.11,0,.36.07.47.11a12.68,12.68,0,0,0,5.1,2.77c1.35-.07,2.66.51,4,.36H142.53a8.66,8.66,0,0,0,3.06-.25c0-.15.07-.4.11-.55s.07-.58.11-.8c2.3-12.83,4.52-25.7,7-38.53l.22-1.64c-9.91,0-19.87,0-29.78,0-2.41-.07-4.88,0-7.29-.29-4.12-.18-8.27,0-12.39-.44-5.1,0-10.17-.47-15.27-.47-4-.4-8.06-.25-12.1-.44-2.62-.33-5.32-.18-8-.29-4.34-.47-8.75-.15-13.09-.62-4.59,0-9.19-.36-13.78-.47a.52.52,0,0,0,.07-.22c1.53,0,3-.07,4.56-.11,3.39-.44,6.82-.15,10.21-.62,3.54,0,7-.47,10.57-.47,3.13-.44,6.31-.18,9.44-.62,3.68,0,7.29-.47,11-.51,3-.4,6.09-.18,9.11-.58,3.54,0,7-.51,10.57-.47,3.46-.4,7-.29,10.46-.66-.33-1.35-.58-2.7-.87-4-.26-.84-1.28-.66-1.93-.77Q102.6,223,90.8,221.32c.51-.4,1.2-.22,1.79-.29,6.12-.47,12.21-1,18.33-1.46,1.39-.07,2.73-.33,4.12-.36a47.63,47.63,0,0,0-1.82-5.72c-13.08-2-26.17-3.79-39.22-5.94,3.39-.55,6.82-.8,10.21-1.17l.29-.11c10.83-1.13,21.69-2.41,32.51-3.46,13.74-.07,27.45,0,41.19,0,.44-.07,1.2.15,1.28-.47,1.13-5.9,2.22-11.81,3.35-17.71a88.44,88.44,0,0,1,7.87-23.77,70.09,70.09,0,0,1,27.12-29c10.83-6.34,23.37-9.4,35.83-10a56.29,56.29,0,0,1,12.14.26c2.62.62,5.32,1.35,7.4,3.13a12.41,12.41,0,0,1,3.5,5.47,87,87,0,0,1,3.43,14.94c0,2,.4,4.34-.69,6.2s-3.06,2.7-5,3.24c-7,1.82-14.4.11-21.43,1.82A26.08,26.08,0,0,0,218.12,166c-4.34,5.39-6.63,12.1-7.91,18.81-1,6-2.22,12-3.21,18,6.93,0,13.89,0,20.85,0A7.34,7.34,0,0,1,234.6,207c1.46,3.35,1.13,7.15.66,10.68a38.87,38.87,0,0,1-3.32,11.55c-1.5,3.1-4,5.94-7.36,7a14.7,14.7,0,0,1-5.5.55c-6.12,0-12.25.07-18.37,0-1,4.48-1.64,9.08-2.52,13.63-1.6,8.86-3.17,17.75-4.77,26.65,0,.29-.07.91-.07,1.24,2.88.15,5.76,0,8.64.07,21.36,0,42.76,0,64.15,0a12.77,12.77,0,0,0,6.63-1.6c1.2-.44,1.93-1.49,3-2.08s1.31-1.79,2.19-2.55a12.15,12.15,0,0,0,2-5.4,3.27,3.27,0,0,0,.55-.07C280.38,199.6,280.49,132.53,280.42,65.46Z"/><path class="c" d="M54.64,21.35c3.1-1,6.34-.33,9.51-.55q89.29.05,178.57,0c3.54-.15,6.63,1.86,9.91,2.88,2.62,1.06,5.36,1.9,8,3A4.34,4.34,0,0,1,262,27.8c0,4.81,0,9.66,0,14.51a12.28,12.28,0,0,0,.26,3.83c.77.11,1.17.69,1.68,1.17,2.41,1.09,4.45,2.88,6.63,4.34,3.28,2.33,6.78,4.37,10,6.78a6.07,6.07,0,0,1-.26,2.81,15.18,15.18,0,0,0-.22,3.13q-129.53.05-259,0c-.18-1.2.15-2.41-.36-3.54-.07-.95-.4-2.19.51-2.84,3.65-2.55,7.51-4.85,11.08-7.55,2.22-1.42,4.37-2.88,6.52-4.34a4.64,4.64,0,0,0,.29-2.44c0-5.29,0-10.57,0-15.86,1.24-1.6,3.39-1.79,5.1-2.59,3.46-1.31,7-2.59,10.39-3.9m.22.62c-4.67,1.79-9.37,3.5-14,5.29-.62.11-.95.66-1.28,1.13,0,.29.07.8.07,1.09,0,4.37,0,8.75,0,13.12a9.15,9.15,0,0,0,.29,3.17,9,9,0,0,1-1.57,1.31C33,50.51,27.92,54.23,22.64,57.62c-.91.55-1.93,1.28-1.64,2.48-.18.66.15,1.2.84,1,11.45-.07,22.85.07,34.3-.11,17,0,34,0,51,0l.26-.11a9.92,9.92,0,0,0,2.33.11Q156,61,202.3,61c9.7,0,19.43,0,29.16,0,16,0,32.11.15,48.15.07.47-.11.62-.44.44-1s.18-1.39-.44-1.75c-2.55-1.2-4.74-3.06-7.18-4.52-.87-.73-2-1.13-2.66-2.11-2.52-1.42-4.85-3.17-7.33-4.74a7.43,7.43,0,0,1-1.24-1.17,8.88,8.88,0,0,0,.29-2.41c0-4.63,0-9.26,0-13.89a2,2,0,0,0-.58-2c-4.37-1.57-8.71-3.24-13-4.85a14.91,14.91,0,0,0-4.3-1.24H57.23a14.22,14.22,0,0,0-2.37.62Z"/><path class="d" d="M39.63,29.48c3.21,1.35,6.63,2.11,9.88,3.43,1.75.69,2.3,2.59,3.06,4.12A15.18,15.18,0,0,1,50,39c-3.35,2.26-6.78,4.45-10.1,6.78a9.15,9.15,0,0,1-.29-3.17C39.63,38.23,39.59,33.86,39.63,29.48Zm212,3.43c3.24-1.28,6.63-2.15,9.88-3.43,0,4.63,0,9.26,0,13.89a8.88,8.88,0,0,1-.29,2.41c-2.84-2-5.72-3.83-8.57-5.76a33.58,33.58,0,0,1-4.16-3c.77-1.53,1.35-3.39,3.1-4.08Z"/><path class="e" d="M95.25,34.4c4-.95,8.49,2.62,8.16,6.82a6.94,6.94,0,0,1-8.27,6.52A7.92,7.92,0,0,1,91,44.94a6.84,6.84,0,0,1-.55-6.63,6.52,6.52,0,0,1,4.78-3.9Zm104,2.3a7,7,0,0,1,6.82-2.26A6.82,6.82,0,0,1,207.77,47a7,7,0,0,1-8.38-1.42A6.94,6.94,0,0,1,199.24,36.7Z"/><path class="f" d="M50,39a15.18,15.18,0,0,0,2.59-2l.25.26c.26,1.9.07,3.83.15,5.72-.11,5.69.11,11.41-.15,17.1-10.61,0-21.21-.07-31.82,0-.29-1.2.73-1.93,1.64-2.48C27.93,54.23,33,50.51,38.31,47.09a9,9,0,0,0,1.57-1.31C43.2,43.44,46.62,41.26,50,39Zm198.14-.73a2.27,2.27,0,0,1,.36-1.28,33.64,33.64,0,0,0,4.16,3c2.84,1.93,5.72,3.79,8.57,5.76a7.49,7.49,0,0,0,1.24,1.17c2.48,1.57,4.81,3.32,7.33,4.74.66,1,1.79,1.39,2.66,2.11,2.44,1.46,4.63,3.32,7.18,4.52.62.36.4,1.17.44,1.75-10.61,0-21.18,0-31.78,0a43.35,43.35,0,0,1-.11-4.34c0-5.83-.07-11.66,0-17.5Z"/><path class="g" d="M280.05,60.06c-10.61,0-21.18,0-31.78,0a43.35,43.35,0,0,1-.11-4.34c0-5.83-.07-11.66,0-17.5a2.27,2.27,0,0,1,.36-1.28c.77-1.53,1.35-3.39,3.1-4.08,3.24-1.28,6.63-2.15,9.88-3.43a2,2,0,0,0-.58-2c-4.37-1.57-8.71-3.24-13-4.85a14.91,14.91,0,0,0-4.3-1.24H57.23a14.2,14.2,0,0,0-2.37.62c-4.67,1.79-9.37,3.5-14,5.29-.62.11-.95.66-1.28,1.13,0,.29.07.8.07,1.09,3.21,1.35,6.63,2.11,9.88,3.43,1.75.69,2.3,2.59,3.06,4.12l.25.26c.26,1.9.07,3.83.15,5.72-.11,5.69.11,11.41-.15,17.1-10.61,0-21.21-.07-31.82,0-.18.66.15,1.2.84,1,11.45-.07,22.85.07,34.3-.11,17,0,34,0,51,0l.26-.11a9.92,9.92,0,0,0,2.33.11Q156,61,202.3,61c9.7,0,19.43,0,29.16,0,16,0,32.11.15,48.15.07.48-.11.62-.44.44-1ZM90.47,38.3a6.52,6.52,0,0,1,4.78-3.9c4-.95,8.49,2.62,8.16,6.82a6.94,6.94,0,0,1-8.27,6.52A7.92,7.92,0,0,1,91,44.94a6.84,6.84,0,0,1-.55-6.63Zm108.77-1.6a7,7,0,0,1,6.82-2.26A6.82,6.82,0,0,1,207.77,47a7,7,0,0,1-8.38-1.42A6.94,6.94,0,0,1,199.24,36.7Z"/><path class="h" d="M208.53,76.08c.51.11-2.66-3-2-3.19.58.07,2.79-1.64,5.47-.24s2,4.68,1.71,5.89a6.59,6.59,0,0,1-2,3.1,3.52,3.52,0,0,1-1.85.8c.33-1.79-.73-2.08-.8-3.9Z"/><path class="i" d="M92,78.06c-.07,1.82-1.13,2.11-.8,3.9a3.52,3.52,0,0,1-1.85-.8,6.6,6.6,0,0,1-2-3.1c-.3-1.21-1-4.49,1.71-5.89s4.88.32,5.47.24c.62.15-2.55,3.3-2,3.19L92,78.06Z"/><path class="e" d="M203.76,99.43A2,2,0,0,1,205.4,99c-4.37,9.48-9.48,19-17.15,26.33a25.72,25.72,0,0,1-2.59,2c-.88.64-1.74,1.25-2.6,1.86s-1.67,1.17-2.48,1.78c-2.08,1.13-3.9,2.7-6.2,3.39a58.21,58.21,0,0,1-13.27,4.3,38.9,38.9,0,0,1-5.43.77c-2.26.66-4.67.18-7,.33-1.28.22-2.41-.51-3.65-.36q-1.61-.23-3.21-.55t-3.22-.77c-16.71-5.21-33.11-18-37.89-35.22a19.38,19.38,0,0,1-.32-3.52q.76,1.53,1.59,3c6.8,14.82,20.28,26.49,36.22,30,1.29.59,2.69.38,3.93.89a10.18,10.18,0,0,1,3.32.33c3.75.07,7.51,0,11.26,0a5.52,5.52,0,0,0,1.49-.33,48,48,0,0,0,18.1-4.51q1.71-.78,3.37-1.65,1.45-.76,2.83-1.65t2.63-1.86a60.38,60.38,0,0,0,16.54-20.24C202.46,102,203.15,100.62,203.76,99.43Z"/><path class="j" d="M197.82,131.83c10.83-6.34,23.37-9.4,35.83-10a56.29,56.29,0,0,1,12.14.26c2.62.62,5.32,1.35,7.4,3.13a15.7,15.7,0,0,1-3.13-.55c-3-.58-6.09-.36-9.11-.44-8.79,0-17.64.69-26.13,3.1a61.36,61.36,0,0,0-12.94,5.25,64.58,64.58,0,0,0-18.41,15.09c-9.11,10.46-14.47,23.73-17.06,37.25-1.24,7.25-2.66,14.47-3.79,21.76-1.82.18-3.68.07-5.5.07q-12-.05-24.06-.15c-1.71.07-3.39-.33-5.1-.22-14.58.07-29.16,0-43.74,0l.29-.11c10.83-1.13,21.69-2.41,32.51-3.46,13.74-.07,27.45,0,41.19,0,.44-.07,1.2.15,1.28-.47,1.13-5.9,2.22-11.81,3.35-17.71a88.47,88.47,0,0,1,7.87-23.76A70.09,70.09,0,0,1,197.82,131.83Z"/><path class="k" d="M214.81,127.35c8.49-2.41,17.35-3.1,26.13-3.1,3,.07,6.12-.15,9.11.44a15.69,15.69,0,0,0,3.13.55,12.41,12.41,0,0,1,3.5,5.47,87,87,0,0,1,3.43,14.94c0,2,.4,4.34-.69,6.2s-3.06,2.7-5,3.24c-7,1.82-14.4.11-21.43,1.82A26.08,26.08,0,0,0,218.12,166c-4.34,5.39-6.63,12.1-7.91,18.81-1,6-2.22,12-3.21,18a32.4,32.4,0,0,0-.95,4.23c6.89.11,13.78,0,20.67.07,2.62-.07,5.25.07,7.87-.11,1.46,3.35,1.13,7.15.66,10.68a38.87,38.87,0,0,1-3.32,11.55c-1.5,3.1-4,5.94-7.36,7a14.7,14.7,0,0,1-5.5.55c-6.12,0-12.25.07-18.37,0-1,4.48-1.64,9.08-2.52,13.63-1.6,8.86-3.17,17.75-4.77,26.65,0,.29-.07.91-.07,1.24v0c-15.93,0-31.82,0-47.75,0,0-.15.07-.4.11-.55s.07-.58.11-.8c0,.29.07.84.11,1.09,1,.11,2.77.62,3-.8,2.48-13.41,4.78-26.9,7.33-40.31a7.68,7.68,0,0,0-3,0c-.15.51-.29,1-.47,1.53l.22-1.64c-9.91,0-19.87,0-29.78,0-2.41-.07-4.88,0-7.29-.29-4.12-.18-8.27,0-12.39-.44-5.1,0-10.17-.47-15.27-.47-4-.4-8.06-.26-12.1-.44-2.62-.33-5.32-.18-8-.29-4.34-.47-8.75-.15-13.09-.62-4.59,0-9.19-.36-13.78-.47a.52.52,0,0,0,.07-.22c1.53,0,3-.07,4.56-.11,3.39-.44,6.82-.15,10.21-.62,3.54,0,7-.47,10.57-.47,3.13-.44,6.31-.18,9.44-.62,3.68,0,7.29-.47,11-.51,3-.4,6.09-.18,9.11-.58,3.54,0,7-.51,10.57-.47,3.46-.4,7-.29,10.46-.66-.33-1.35-.58-2.7-.87-4-.26-.84-1.28-.66-1.93-.77Q102.6,223,90.8,221.32c.51-.4,1.2-.22,1.79-.29,6.12-.47,12.21-1,18.33-1.46,1.39-.07,2.73-.33,4.12-.36a47.64,47.64,0,0,0-1.82-5.72c-13.08-2-26.17-3.79-39.22-5.94,3.39-.55,6.82-.8,10.21-1.17,14.58,0,29.16.11,43.74,0,1.71-.11,3.39.29,5.1.22q12,.11,24.06.15c1.82,0,3.68.11,5.5-.07,1.13-7.29,2.55-14.51,3.79-21.76,2.59-13.52,7.95-26.79,17.06-37.25a64.58,64.58,0,0,1,18.41-15.09A61.35,61.35,0,0,1,214.81,127.35Z"/><path class="j" d="M207,202.77c6.93,0,13.89,0,20.85,0A7.34,7.34,0,0,1,234.6,207c-2.62.18-5.25,0-7.87.11-6.89-.07-13.78,0-20.67-.07a32.23,32.23,0,0,1,.95-4.23Zm-53.76,34.15a7.68,7.68,0,0,1,3,0c-2.55,13.41-4.85,26.9-7.33,40.31-.26,1.42-2,.91-3,.8,0-.25-.07-.8-.11-1.09,2.3-12.83,4.52-25.7,7-38.53.18-.51.33-1,.47-1.53Z"/><path class="l" d="M210.19,77.1a3.87,3.87,0,0,1-.33-1.82l-.29,0A4.15,4.15,0,0,0,206,72.11c-1.31-.11-3-.07-3.72,1.17-1.46,2-.77,4.48-.84,6.71,0,.15,0,.4,0,.55a25.48,25.48,0,0,1-.44,4.41,3.13,3.13,0,0,0-.33,1.42,33.61,33.61,0,0,1-3.54,9.91,3.68,3.68,0,0,0-.69,1.42,49.25,49.25,0,0,1-3.75,5.39,4.67,4.67,0,0,0-.58.62,35.6,35.6,0,0,1-3,3.17c-.25.15-.44.33-.66.47a23.74,23.74,0,0,1-4.12,3.24c-.18.11-.36.26-.58.4-9.33,6.16-20.67,8.71-31.71,8.82a59.23,59.23,0,0,1-27.27-5.76l-.66-.29A36.48,36.48,0,0,1,120,111.4c-.29-.15-.58-.33-.91-.47a27.86,27.86,0,0,1-3.83-2.7c-.4-.36-.84-.66-1.28-1a30.89,30.89,0,0,1-3.79-3.46c-.29-.33-.58-.62-.87-.91a36.33,36.33,0,0,1-8.71-14.62c-1.57-4.34-1.35-9.08-1.53-13.63-1.31-2-4.08-3.13-6.27-1.9-.91.66-1,1.86-1.71,2.7-1.13,12,4,24,12.21,32.7a.59.59,0,0,0,.4.58c1.46,1.35,2.88,2.73,4.34,4a5.8,5.8,0,0,0,.87.73c1.46,1.2,3,2.3,4.56,3.43a7.76,7.76,0,0,0,.91.58,41,41,0,0,0,6.05,3.35,4.75,4.75,0,0,0,.55.36A65.73,65.73,0,0,0,143,127.51a11.78,11.78,0,0,1,2.52.26c3.65.22,7.29.11,10.94,0,11.26-1,22.89-3.72,32.3-10.35l.11.15c.29-.26.55-.47.84-.69,1.5-1.09,3-2.26,4.41-3.46a11.07,11.07,0,0,0,1-.87,48.08,48.08,0,0,0,4.81-5.36l.22.11c.11-.18.29-.55.4-.73,1.24-1.68,2.37-3.43,3.46-5.18.07-.11.25-.29.33-.4l-.15-.15c.11-.15.36-.44.47-.58a42.76,42.76,0,0,0,4.41-12.87.63.63,0,0,0,.4-.58c0-1.46.55-2.84.4-4.3a24.83,24.83,0,0,0,.29-5.43Z"/><g class="m"><path class="n" d="M88.28,75.87c3,.93,9.74-1.41,11.66.73M90,84.86c2.83-1,8.9-3.32,11.42-1.94m-8.5,10.94c1.37.44,4.07-2,5.41-2.67A19.91,19.91,0,0,1,104.56,89m-7.29,14.34a20.61,20.61,0,0,1,5.14-5.1c2-1.41,7.55-5.19,9.93-3.89m-10.94,15.8c1.6-1.27,2.25-3.53,3.94-4.87,2-1.62,5.15-1.91,7.24-2.91m-4.31,12.82c.48-3.52,4.06-7.78,7.47-7.47m-2.19,12.39c1.8-.18,3.33-4.22,4.55-5.59,1.83-2.05,3.72-2.68,6.14-3.4M124,124.47c-.12-2.55,2.52-9.86,5.59-9.48m2.19,11.91c-.13-3,1.43-12.08,5.1-12.39m2.92,17.25c-.7-4.21-.65-10.31,2.67-13.37m7.29,14.34c-.37-3.51-3.86-10.61,0-13.37m10.69,10.94c-1.67-1.93-2.64-9.55-1.94-11.66m12.15,10c-1.29-2.33-2.88-4.53-3.37-7.24-.29-1.62.22-3.93,0-5.16M179.16,125c-2.79-1.82-3.56-8.53-2.67-11.42m10.94,7.78c-2-4.25-4.1-7.55-4.13-12.39m12.15,4.62c-3.08-2.07-7-5.84-6.56-10m15.07,3.4c-4.68-1-10.3-5.23-13.12-9m17,1c-3.38-.72-14.54-5.08-13.85-9.48m17.5,1c-4.71-1.73-11.55-3.28-15.31-6.56m17.74-1.22c-3,.25-7.21-1.18-10.22-1.7-3.35-.58-6.45-1.7-9.7-2.43m17-3.4c-5.72.34-11.08-1.61-16.28-3.4"/></g></svg>