<svg xmlns="http://www.w3.org/2000/svg" viewBox="0 0 156.97 73.4"><title>DTALE New Logo</title><path d="M676.89,278.75h-152a2.51,2.51,0,0,0-2.5,2.5v68.4a2.51,2.51,0,0,0,2.5,2.5h152a2.51,2.51,0,0,0,2.5-2.5v-68.4A2.51,2.51,0,0,0,676.89,278.75Zm-2.5,65.9a2.51,2.51,0,0,1-2.5,2.5h-142a2.51,2.51,0,0,1-2.5-2.5v-58.4a2.51,2.51,0,0,1,2.5-2.5h142a2.51,2.51,0,0,1,2.5,2.5Z" transform="translate(-522.43 -278.75)"/><path d="M557.53,296.2a12.79,12.79,0,0,1,4.45,5.45A20,20,0,0,1,562,317a12.79,12.79,0,0,1-4.45,5.45,12,12,0,0,1-7,2H540.22a2.59,2.59,0,0,1-2.64-2.64v-25a2.59,2.59,0,0,1,2.64-2.64h10.33A12,12,0,0,1,557.53,296.2ZM556,316.61a14.54,14.54,0,0,0,0-14.57,6.59,6.59,0,0,0-5.82-2.88H543v20.32h7.13A6.58,6.58,0,0,0,556,316.61Z" transform="translate(-522.43 -278.75)"/><path d="M589.42,294.88a2.38,2.38,0,0,1,.74,1.82,2.31,2.31,0,0,1-.74,1.79,2.71,2.71,0,0,1-1.9.67h-6.79v22.66a2.45,2.45,0,0,1-.82,1.88,2.89,2.89,0,0,1-2,.76,2.73,2.73,0,0,1-2-.76,2.52,2.52,0,0,1-.78-1.88V299.16h-6.79a2.66,2.66,0,0,1-1.9-.69,2.38,2.38,0,0,1-.74-1.82,2.29,2.29,0,0,1,.76-1.77,2.68,2.68,0,0,1,1.88-.69h19.2A2.67,2.67,0,0,1,589.42,294.88Z" transform="translate(-522.43 -278.75)"/><path d="M616.49,322.12a2.45,2.45,0,0,1-.74,1.84,2.36,2.36,0,0,1-1.69.71,2.27,2.27,0,0,1-1.41-.48,3.08,3.08,0,0,1-1-1.3l-2.25-5.23H596.56l-2.25,5.28a2.66,2.66,0,0,1-.93,1.28,2.2,2.2,0,0,1-3.65-1.79,2.86,2.86,0,0,1,.13-.82l10.77-25.86a2.87,2.87,0,0,1,1-1.34,2.27,2.27,0,0,1,1.56-.39,2.53,2.53,0,0,1,1.45.45,2.57,2.57,0,0,1,1,1.28l10.64,25.34A2.92,2.92,0,0,1,616.49,322.12Zm-17.82-9.43h8.65L603,302.58Z" transform="translate(-522.43 -278.75)"/><path d="M638.74,320.11a2.41,2.41,0,0,1,.76,1.84,2.36,2.36,0,0,1-.76,1.79,2.64,2.64,0,0,1-1.88.71H622.81a2.59,2.59,0,0,1-2.64-2.64v-25a2.52,2.52,0,0,1,.78-1.88,2.74,2.74,0,0,1,2-.76,2.58,2.58,0,0,1,1.86.76,2.52,2.52,0,0,1,.78,1.88V319.4h11.29A2.64,2.64,0,0,1,638.74,320.11Z" transform="translate(-522.43 -278.75)"/><path d="M663.47,320.24a2.41,2.41,0,0,1,.76,1.75,2.3,2.3,0,0,1-.76,1.77,2.68,2.68,0,0,1-1.88.69H647.11a2.59,2.59,0,0,1-2.64-2.64v-25a2.59,2.59,0,0,1,2.64-2.64h14.49a2.64,2.64,0,0,1,1.88.71,2.41,2.41,0,0,1,.76,1.84,2.26,2.26,0,0,1-.74,1.75,2.71,2.71,0,0,1-1.9.67H649.87v7.35h9.77a2.64,2.64,0,0,1,1.88.71,2.41,2.41,0,0,1,.76,1.84,2.26,2.26,0,0,1-.74,1.75,2.71,2.71,0,0,1-1.9.67h-9.77v8h11.72A2.56,2.56,0,0,1,663.47,320.24Z" transform="translate(-522.43 -278.75)"/><path d="M542.43,330.2a2.9,2.9,0,0,1,1,1.28,5,5,0,0,1,0,3.57,2.84,2.84,0,0,1-1,1.27,2.75,2.75,0,0,1-1.63.47h-2.57a.29.29,0,0,1-.3-.3V330a.29.29,0,0,1,.3-.3h2.57A2.7,2.7,0,0,1,542.43,330.2Zm.08,5.18a3.51,3.51,0,0,0,.6-2.12,4.12,4.12,0,0,0-.25-1.48,2.31,2.31,0,0,0-.79-1.06,2.22,2.22,0,0,0-1.36-.4h-2.14v5.88h2.14A2.09,2.09,0,0,0,542.51,335.38Z" transform="translate(-522.43 -278.75)"/><path d="M553.85,336.28a.3.3,0,0,1,.09.21.28.28,0,0,1-.09.21.3.3,0,0,1-.22.08h-3.7a.29.29,0,0,1-.3-.3V330a.29.29,0,0,1,.3-.3h3.7a.29.29,0,0,1,.3.3.28.28,0,0,1-.09.21.3.3,0,0,1-.22.08h-3.37v2.53h2.92a.29.29,0,0,1,.3.3.28.28,0,0,1-.09.21.3.3,0,0,1-.22.08h-2.92v2.75h3.37A.29.29,0,0,1,553.85,336.28Z" transform="translate(-522.43 -278.75)"/><path d="M560.42,336.65a3.61,3.61,0,0,1-1.09-.76.31.31,0,0,1-.12-.24.32.32,0,0,1,.1-.22.29.29,0,0,1,.22-.1.31.31,0,0,1,.22.1,2.55,2.55,0,0,0,2,.87,2,2,0,0,0,1.21-.34,1.06,1.06,0,0,0,.48-.9,1.1,1.1,0,0,0-.24-.72,1.77,1.77,0,0,0-.62-.47,8.24,8.24,0,0,0-1-.37,6,6,0,0,1-1.09-.42,2,2,0,0,1-.71-.62,1.67,1.67,0,0,1-.27-1,1.62,1.62,0,0,1,.29-.95,1.93,1.93,0,0,1,.81-.65,2.86,2.86,0,0,1,1.2-.24,3.21,3.21,0,0,1,1.16.21,2.07,2.07,0,0,1,.86.59.49.49,0,0,1,.15.29.28.28,0,0,1-.1.21.32.32,0,0,1-.22.1.23.23,0,0,1-.17-.07,2,2,0,0,0-.73-.52,2.31,2.31,0,0,0-.95-.2,2,2,0,0,0-1.2.33,1.11,1.11,0,0,0,0,1.79,4.73,4.73,0,0,0,1.27.58,7.7,7.7,0,0,1,1.17.43,1.93,1.93,0,0,1,.74.63,1.83,1.83,0,0,1,.29,1.08,1.57,1.57,0,0,1-.3.93,2,2,0,0,1-.83.66,2.87,2.87,0,0,1-1.21.24A3.22,3.22,0,0,1,560.42,336.65Z" transform="translate(-522.43 -278.75)"/><path d="M570.45,336.7a.3.3,0,0,1-.22.09.29.29,0,0,1-.31-.31V330a.3.3,0,0,1,.09-.23.32.32,0,0,1,.23-.09.31.31,0,0,1,.31.31v6.44A.34.34,0,0,1,570.45,336.7Z" transform="translate(-522.43 -278.75)"/><path d="M582.25,333.31a.3.3,0,0,1,.09.22V336a.31.31,0,0,1-.15.27,3.69,3.69,0,0,1-1,.48,3.81,3.81,0,0,1-1.13.17,3.67,3.67,0,0,1-1.86-.47,3.45,3.45,0,0,1-1.3-1.3,3.87,3.87,0,0,1,0-3.71,3.46,3.46,0,0,1,1.3-1.3,3.67,3.67,0,0,1,1.86-.47,4.06,4.06,0,0,1,1,.13,3.29,3.29,0,0,1,.89.37.28.28,0,0,1,.14.25.31.31,0,0,1-.09.22.26.26,0,0,1-.2.09.34.34,0,0,1-.18-.05,3.3,3.3,0,0,0-1.61-.41,3,3,0,0,0-1.54.39,2.8,2.8,0,0,0-1.06,1.09,3.32,3.32,0,0,0,0,3.1,2.8,2.8,0,0,0,1.06,1.09,3,3,0,0,0,1.54.39,3.28,3.28,0,0,0,.87-.12,3,3,0,0,0,.78-.33v-2h-1.6a.31.31,0,0,1-.22-.09.3.3,0,0,1,0-.43.31.31,0,0,1,.22-.09H582A.29.29,0,0,1,582.25,333.31Z" transform="translate(-522.43 -278.75)"/><path d="M593.71,329.8a.28.28,0,0,1,.08.2v6.46a.3.3,0,0,1-.31.32.32.32,0,0,1-.14,0l-.11-.07-4.33-5.83v5.66a.25.25,0,0,1-.09.19.28.28,0,0,1-.2.08.27.27,0,0,1-.2-.08.26.26,0,0,1-.08-.19V330a.29.29,0,0,1,.29-.3.28.28,0,0,1,.24.11l4.35,5.86V330a.28.28,0,0,1,.28-.28A.27.27,0,0,1,593.71,329.8Z" transform="translate(-522.43 -278.75)"/><path d="M607.94,336.65a3.61,3.61,0,0,1-1.09-.76.31.31,0,0,1-.12-.24.32.32,0,0,1,.1-.22.29.29,0,0,1,.22-.1.31.31,0,0,1,.22.1,2.55,2.55,0,0,0,2,.87,2,2,0,0,0,1.21-.34,1.06,1.06,0,0,0,.48-.9,1.1,1.1,0,0,0-.24-.72,1.77,1.77,0,0,0-.62-.47,8.24,8.24,0,0,0-1-.37,6,6,0,0,1-1.09-.42,2,2,0,0,1-.71-.62,1.67,1.67,0,0,1-.27-1,1.62,1.62,0,0,1,.29-.95,1.93,1.93,0,0,1,.81-.65,2.86,2.86,0,0,1,1.2-.24,3.21,3.21,0,0,1,1.16.21,2.07,2.07,0,0,1,.86.59.49.49,0,0,1,.15.29.28.28,0,0,1-.1.21.32.32,0,0,1-.22.1.23.23,0,0,1-.17-.07,2,2,0,0,0-.73-.52,2.31,2.31,0,0,0-.95-.2,2,2,0,0,0-1.2.33,1.11,1.11,0,0,0,0,1.79,4.73,4.73,0,0,0,1.27.58,7.7,7.7,0,0,1,1.17.43,1.93,1.93,0,0,1,.74.63,1.83,1.83,0,0,1,.29,1.08,1.57,1.57,0,0,1-.3.93,2,2,0,0,1-.83.66,2.87,2.87,0,0,1-1.21.24A3.22,3.22,0,0,1,607.94,336.65Z" transform="translate(-522.43 -278.75)"/><path d="M622.16,329.8a.28.28,0,0,1,.09.21.26.26,0,0,1-.09.21.32.32,0,0,1-.22.08h-2.09v6.19a.29.29,0,0,1-.09.22.31.31,0,0,1-.22.09.31.31,0,0,1-.23-.09.29.29,0,0,1-.09-.22V330.3h-2.09a.3.3,0,0,1-.22-.08.28.28,0,0,1-.09-.21.27.27,0,0,1,.09-.2.3.3,0,0,1,.22-.08h4.8A.3.3,0,0,1,622.16,329.8Z" transform="translate(-522.43 -278.75)"/><path d="M633.19,329.81a.29.29,0,0,1,.09.22v4.18a2.67,2.67,0,0,1-.35,1.35,2.65,2.65,0,0,1-4.59,0,2.67,2.67,0,0,1-.35-1.35V330a.29.29,0,0,1,.09-.22.32.32,0,0,1,.24-.09.3.3,0,0,1,.21.09.29.29,0,0,1,.09.22v4.18a2.06,2.06,0,0,0,1,1.79,2,2,0,0,0,2,0,2.08,2.08,0,0,0,.75-.75,2,2,0,0,0,.28-1V330a.3.3,0,0,1,.08-.22.28.28,0,0,1,.21-.09A.29.29,0,0,1,633.19,329.81Z" transform="translate(-522.43 -278.75)"/><path d="M644.12,330.2a2.9,2.9,0,0,1,1,1.28,5,5,0,0,1,0,3.57,2.84,2.84,0,0,1-1,1.27,2.75,2.75,0,0,1-1.63.47h-2.57a.29.29,0,0,1-.3-.3V330a.29.29,0,0,1,.3-.3h2.57A2.7,2.7,0,0,1,644.12,330.2Zm.08,5.18a3.51,3.51,0,0,0,.6-2.12,4.12,4.12,0,0,0-.25-1.48,2.31,2.31,0,0,0-.79-1.06,2.22,2.22,0,0,0-1.36-.4h-2.14v5.88h2.14A2.09,2.09,0,0,0,644.2,335.38Z" transform="translate(-522.43 -278.75)"/><path d="M651.85,336.7a.3.3,0,0,1-.22.09.29.29,0,0,1-.31-.31V330a.3.3,0,0,1,.09-.23.32.32,0,0,1,.23-.09.31.31,0,0,1,.31.31v6.44A.34.34,0,0,1,651.85,336.7Z" transform="translate(-522.43 -278.75)"/><path d="M664.14,335.12a3.32,3.32,0,0,1-5.9,0,4.26,4.26,0,0,1,0-3.74,3.23,3.23,0,0,1,1.2-1.29,3.52,3.52,0,0,1,3.49,0,3.23,3.23,0,0,1,1.2,1.29,4.26,4.26,0,0,1,0,3.74Zm-.56-3.44a2.62,2.62,0,0,0-1-1.08,2.81,2.81,0,0,0-2.84,0,2.62,2.62,0,0,0-1,1.08,3.71,3.71,0,0,0,0,3.14,2.61,2.61,0,0,0,1,1.08,2.81,2.81,0,0,0,2.84,0,2.61,2.61,0,0,0,1-1.08,3.71,3.71,0,0,0,0-3.14Z" transform="translate(-522.43 -278.75)"/></svg>