<svg xmlns="http://www.w3.org/2000/svg" viewBox="0 0 300 300"><defs><style>.a{opacity:0.48;}.b,.d{fill:#1a9fd9;}.c{fill:#2076af;}.d,.e{opacity:0.72;}</style></defs><title>DTALE_Website_Logos</title><g class="a"><path class="b" d="M226.24,122.19l-.37-.93,8.7-3.48.37.93Z"/><path class="b" d="M227.54,125.73l-.33-.94,8.85-3.07.33.94Z"/><path class="b" d="M228.68,129.38l-.28-1,9-2.64.28,1Z"/><path class="b" d="M229.64,133.06l-.24-1,9.1-2.22.24,1Z"/><path class="b" d="M230.43,136.77l-.19-1,9.19-1.79.19,1Z"/><path class="b" d="M231,140.51l-.14-1,9.27-1.36.15,1Z"/><path class="b" d="M231.48,144.27l-.1-1,9.32-.93.1,1Z"/><path class="b" d="M231.75,148l-.05-1,9.35-.5.05,1Z"/><path class="b" d="M231.84,151.88v-1l9.37-.06v1Z"/><path class="b" d="M231.75,155.65l0-1,9.36.38,0,1Z"/><path class="b" d="M231.49,159.42l.09-1,9.33.81-.09,1Z"/><path class="b" d="M231,163.23l.13-1,9.28,1.25-.13,1Z"/><path class="b" d="M230.43,167l.18-1,9.22,1.67-.18,1Z"/><path class="b" d="M229.64,170.66l.22-1,9.13,2.1-.22,1Z"/><path class="b" d="M228.68,174.33l.27-1,9,2.53-.27,1Z"/><path class="b" d="M227.55,178l.31-.95,8.89,2.94-.31.95Z"/><path class="b" d="M226.24,181.54l.36-.93,8.74,3.36-.36.93Z"/><path class="b" d="M224.79,185l.4-.91,8.58,3.76-.4.91Z"/><path class="b" d="M223.17,188.42l.44-.89,8.39,4.16-.44.89Z"/><path class="b" d="M221.36,191.82l.49-.87L230,195.5l-.49.87Z"/><path class="b" d="M219.44,195l.53-.85,8,4.93-.53.85Z"/><path class="b" d="M217.32,198.24l.57-.82,7.72,5.31-.57.82Z"/><path class="b" d="M215.12,201.25l.6-.79,7.47,5.66-.6.8Z"/><path class="b" d="M212.72,204.23l.64-.77,7.19,6-.64.77Z"/><path class="b" d="M210.2,207.07l.68-.74,6.9,6.33-.68.74Z"/><path class="b" d="M207.57,209.77l.71-.7,6.61,6.64-.71.7Z"/><path class="b" d="M204.8,212.37l.74-.67,6.28,7-.74.67Z"/><path class="b" d="M201.88,214.87l.77-.64,6,7.22-.77.64Z"/><path class="b" d="M198.9,217.19l.8-.6,5.62,7.49-.8.6Z"/><path class="b" d="M195.79,219.38l.83-.56,5.27,7.75-.83.56Z"/><path class="b" d="M192.58,221.43l.85-.52,4.9,8-.85.52Z"/><path class="b" d="M189.29,223.31l.88-.48,4.52,8.21-.87.48Z"/><path class="b" d="M186,225l.9-.44L191,233l-.9.44Z"/><path class="b" d="M182.49,226.59l.92-.4,3.73,8.59-.92.4Z"/><path class="b" d="M178.92,228l.93-.35,3.31,8.76-.93.35Z"/><path class="b" d="M175.36,229.24l.95-.31,2.9,8.91-.95.31Z"/><path class="b" d="M171.7,230.31l1-.26,2.48,9-1,.26Z"/><path class="b" d="M168.07,231.2l1-.22,2.06,9.14-1,.22Z"/><path class="b" d="M164.34,231.92l1-.17L167,241l-1,.17Z"/><path class="b" d="M160.53,232.48l1-.13,1.19,9.29-1,.13Z"/><path class="b" d="M156.77,232.85l1-.08.76,9.34-1,.08Z"/><path class="b" d="M153,233l1,0,.33,9.36-1,0Z"/><path class="b" d="M149.22,233.07h1l-.1,9.37h-1Z"/><path class="b" d="M145.39,232.91l1,.06-.54,9.35-1-.06Z"/><path class="b" d="M141.63,232.58l1,.1-1,9.32-1-.1Z"/><path class="b" d="M137.88,232.08l1,.15-1.4,9.26-1-.15Z"/><path class="b" d="M134.1,231.39l1,.2-1.84,9.19-1-.2Z"/><path class="b" d="M130.41,230.53l1,.24-2.27,9.09-1-.24Z"/><path class="b" d="M126.76,229.51l1,.29-2.69,9-1-.29Z"/><path class="b" d="M123.15,228.31l.94.33L121,237.48l-.94-.33Z"/><path class="b" d="M119.65,227l.93.37L117.06,236l-.93-.37Z"/><path class="b" d="M116.14,225.42l.91.42-3.92,8.51-.91-.42Z"/><path class="b" d="M112.76,223.73l.89.46-4.32,8.31-.89-.46Z"/><path class="b" d="M109.44,221.88l.86.5-4.7,8.1-.86-.5Z"/><path class="b" d="M106.25,219.9l.84.54L102,228.32l-.84-.54Z"/><path class="b" d="M103.08,217.72l.81.58-5.44,7.62-.81-.58Z"/><path class="b" d="M100.1,215.45l.78.62-5.79,7.36-.78-.62Z"/><path class="b" d="M97.15,213l.75.65-6.13,7.08-.75-.65Z"/><path class="b" d="M94.37,210.44l.72.69-6.45,6.79-.72-.69Z"/><path class="b" d="M91.68,207.73l.69.72L85.63,215l-.69-.72Z"/><path class="b" d="M89.14,204.92l.66.75-7.05,6.17-.66-.75Z"/><path class="b" d="M86.74,202l.62.78L80,208.63l-.62-.78Z"/><path class="b" d="M84.47,199l.59.81-7.59,5.49-.58-.81Z"/><path class="b" d="M82.32,195.81l.55.84L75,201.77l-.55-.84Z"/><path class="b" d="M80.34,192.57l.51.86-8.07,4.75-.51-.86Z"/><path class="b" d="M78.52,189.26l.47.88-8.29,4.37-.47-.88Z"/><path class="b" d="M76.84,185.84l.42.9-8.48,4-.42-.9Z"/><path class="b" d="M75.34,182.36l.38.92-8.66,3.57-.38-.92Z"/><path class="b" d="M74,178.83l.34.94-8.82,3.16-.34-.94Z"/><path class="b" d="M72.82,175.19l.29,1-9,2.74-.29-1Z"/><path class="b" d="M71.83,171.58l.25,1L63,174.87l-.25-1Z"/><path class="b" d="M71,167.87l.2,1L62,170.74l-.2-1Z"/><path class="b" d="M70.35,164.14l.16,1-9.25,1.46-.16-1Z"/><path class="b" d="M69.86,160.38l.11,1-9.31,1-.11-1Z"/><path class="b" d="M69.56,156.55l.06,1-9.35.59-.06-1Z"/><path class="b" d="M69.43,152.78l0,1-9.37.16,0-1Z"/><path class="b" d="M69.47,149l0,1-9.36-.27,0-1Z"/><path class="b" d="M69.7,145.17l-.08,1-9.34-.71.08-1Z"/><path class="b" d="M70.1,141.42l-.12,1-9.3-1.14.12-1Z"/><path class="b" d="M70.67,137.68l-.17,1-9.23-1.57.17-1Z"/><path class="b" d="M71.41,134l-.21,1-9.15-2,.21-1Z"/><path class="b" d="M72.34,130.23l-.26,1-9-2.43.26-1Z"/><path class="b" d="M73.44,126.6l-.3,1-8.92-2.85.3-1Z"/><path class="b" d="M74.68,123.06l-.35.94-8.78-3.26.35-.94Z"/><path class="b" d="M76.12,119.52l-.39.92-8.62-3.67.39-.92Z"/><path class="b" d="M77.7,116.1l-.43.9-8.44-4.07.43-.9Z"/><path class="b" d="M79.45,112.74l-.48.88-8.24-4.46.47-.88Z"/><path class="b" d="M81.36,109.45l-.52.85-8-4.85.52-.86Z"/><path class="b" d="M83.42,106.26l-.56.83-7.78-5.22.56-.83Z"/><path class="b" d="M85.65,103.15l-.6.8-7.52-5.58.6-.8Z"/><path class="b" d="M88,100.2l-.63.77L80.08,95l.63-.77Z"/><path class="b" d="M90.45,97.34l-.67.74-7-6.25.67-.74Z"/><path class="b" d="M93.09,94.57l-.7.71-6.68-6.57.7-.71Z"/><path class="b" d="M95.82,92l-.74.67-6.28-7,.74-.67Z"/><path class="b" d="M98.68,89.45l-.76.64-6-7.16.76-.64Z"/><path class="b" d="M101.67,87.08l-.79.61-5.71-7.43.79-.61Z"/><path class="b" d="M104.73,84.86l-.82.57-5.35-7.69.82-.57Z"/><path class="b" d="M107.93,82.78l-.85.53-5-7.93.85-.53Z"/><path class="b" d="M111.19,80.86l-.87.49-4.61-8.16.87-.49Z"/><path class="b" d="M114.52,79.11l-.89.45-4.22-8.36.89-.45Z"/><path class="b" d="M118,77.5l-.91.41-3.82-8.55.91-.41Z"/><path class="b" d="M121.47,76.06l-.93.36-3.42-8.72.93-.36Z"/><path class="b" d="M125.08,74.77l-.95.32-3-8.88.95-.32Z"/><path class="b" d="M128.67,73.67l-1,.28-2.58-9,1-.28Z"/><path class="b" d="M132.36,72.73l-1,.23-2.16-9.12,1-.23Z"/><path class="b" d="M136.08,72l-1,.18-1.73-9.21,1-.18Z"/><path class="b" d="M139.82,71.38l-1,.14-1.3-9.28,1-.14Z"/><path class="b" d="M143.58,71l-1,.09-.87-9.33,1-.09Z"/><path class="b" d="M147.41,70.72l-1,0L146,61.41l1,0Z"/><path class="b" d="M151.19,70.66h-1V61.3h1Z"/><path class="b" d="M155,70.78l-1,0,.44-9.36,1,0Z"/><path class="b" d="M158.79,71.07l-1-.09.88-9.33,1,.09Z"/><path class="b" d="M162.53,71.54l-1-.14,1.31-9.28,1,.14Z"/><path class="b" d="M166.26,72.18l-1-.19L167,62.78l1,.19Z"/><path class="b" d="M170,73l-1-.23,2.16-9.11,1,.23Z"/><path class="b" d="M173.62,74l-1-.28,2.59-9,1,.28Z"/><path class="b" d="M177.24,75.13l-.95-.32,3-8.87.95.32Z"/><path class="b" d="M180.81,76.46l-.93-.36,3.42-8.72.93.36Z"/><path class="b" d="M184.27,77.94l-.91-.41L187.19,69l.91.41Z"/><path class="b" d="M187.73,79.61l-.89-.45,4.23-8.36.89.45Z"/><path class="b" d="M191.07,81.42l-.87-.49,4.61-8.15.87.49Z"/><path class="b" d="M194.28,83.37l-.85-.53,5-7.93.85.53Z"/><path class="b" d="M197.46,85.51l-.82-.57L202,77.25l.82.57Z"/><path class="b" d="M200.46,87.74l-.79-.61,5.71-7.43.79.61Z"/><path class="b" d="M203.43,90.16l-.76-.65,6.05-7.15.76.64Z"/><path class="b" d="M206.26,92.7l-.73-.68,6.38-6.86.73.68Z"/><path class="b" d="M208.94,95.35l-.7-.71,6.69-6.56.7.71Z"/><path class="b" d="M211.52,98.14l-.67-.74,7-6.25.67.74Z"/><path class="b" d="M214,101.05l-.63-.77,7.26-5.92.63.77Z"/><path class="b" d="M216.27,104l-.59-.8,7.53-5.57.59.8Z"/><path class="b" d="M218.46,107.19l-.56-.83,7.78-5.21.55.83Z"/><path class="b" d="M220.48,110.41l-.52-.85,8-4.84.52.85Z"/><path class="b" d="M222.33,113.7l-.48-.88,8.24-4.46.47.88Z"/><path class="b" d="M224,117.11l-.43-.9,8.44-4.06.43.9Z"/></g><path class="b" d="M139,79.07l8.72,55.57a8,8,0,0,1-6.56,8.69L82,154.49,66.5,20.65Z"/><path class="c" d="M145,136.65,66.5,20.66l81.34,61.2-.1,53.4C147.59,137.39,147.13,140,145,136.65Z"/><path class="b" d="M222.79,139.44l-55.49,8.88a8,8,0,0,1-8.74-6.49l-10.74-60,132.86-15.3Z"/><path class="c" d="M165.28,145.61l115.4-79.06-60,81-54,.86C164.23,148.24,162,147.79,165.28,145.61Z"/><path class="b" d="M162.32,222l-8.43-55.67a8,8,0,0,1,6.59-8.67l60.21-10.16L234.6,280.65Z"/><path class="c" d="M156.62,164.32l78,116.33-79.89-60.23-.86-54.71C153.94,164,154.47,161,156.62,164.32Z"/><path class="b" d="M79,162.29l55.59-8.68a8,8,0,0,1,8.7,6.55l11.46,60.27L20.61,234.82Z"/><path class="c" d="M136.57,156.34,20.62,234.82l61.46-80.32,53.09-.92C137.24,153.65,139.89,154.18,136.57,156.34Z"/><polygon class="c" points="150.28 39.1 142.14 54.36 158.43 54.36 150.28 39.1"/><polygon class="d" points="150.98 264.64 159.12 249.38 142.84 249.38 150.98 264.64"/><g class="e"><polygon class="b" points="263.41 151.52 248.14 143.38 248.14 159.66 263.41 151.52"/><polygon class="b" points="37.86 152.22 53.12 160.36 53.12 144.07 37.86 152.22"/></g></svg>